solid OpenSCAD_Model
  facet normal -0.900969 -0.433884 0
    outer loop
      vertex 9.1 7 2.9
      vertex 8.30933 8.64185 10
      vertex 8.30933 8.64185 2.9
    endloop
  endfacet
  facet normal -0.900969 -0.433884 0
    outer loop
      vertex 8.30933 8.64185 10
      vertex 9.1 7 2.9
      vertex 9.1 7 10
    endloop
  endfacet
  facet normal 1 -0 0
    outer loop
      vertex 5.10796 6.08884 10
      vertex 5.10796 7.91116 2.9
      vertex 5.10796 7.91116 10
    endloop
  endfacet
  facet normal 1 0 0
    outer loop
      vertex 5.10796 7.91116 2.9
      vertex 5.10796 6.08884 10
      vertex 5.10796 6.08884 2.9
    endloop
  endfacet
  facet normal 0.62349 -0.781832 0
    outer loop
      vertex 5.10796 7.91116 2.9
      vertex 6.53271 9.04735 10
      vertex 5.10796 7.91116 10
    endloop
  endfacet
  facet normal 0.62349 -0.781832 0
    outer loop
      vertex 6.53271 9.04735 10
      vertex 5.10796 7.91116 2.9
      vertex 6.53271 9.04735 2.9
    endloop
  endfacet
  facet normal -0.222521 -0.974928 0
    outer loop
      vertex 6.53271 9.04735 2.9
      vertex 8.30933 8.64185 10
      vertex 6.53271 9.04735 10
    endloop
  endfacet
  facet normal -0.222521 -0.974928 -0
    outer loop
      vertex 8.30933 8.64185 10
      vertex 6.53271 9.04735 2.9
      vertex 8.30933 8.64185 2.9
    endloop
  endfacet
  facet normal -0.900969 0.433884 0
    outer loop
      vertex 8.30933 5.35815 2.9
      vertex 9.1 7 10
      vertex 9.1 7 2.9
    endloop
  endfacet
  facet normal -0.900969 0.433884 0
    outer loop
      vertex 9.1 7 10
      vertex 8.30933 5.35815 2.9
      vertex 8.30933 5.35815 10
    endloop
  endfacet
  facet normal 0.62349 0.781832 -0
    outer loop
      vertex 6.53271 4.95265 2.9
      vertex 5.10796 6.08884 10
      vertex 6.53271 4.95265 10
    endloop
  endfacet
  facet normal 0.62349 0.781832 0
    outer loop
      vertex 5.10796 6.08884 10
      vertex 6.53271 4.95265 2.9
      vertex 5.10796 6.08884 2.9
    endloop
  endfacet
  facet normal -0.222521 0.974928 0
    outer loop
      vertex 8.30933 5.35815 2.9
      vertex 6.53271 4.95265 10
      vertex 8.30933 5.35815 10
    endloop
  endfacet
  facet normal -0.222521 0.974928 0
    outer loop
      vertex 6.53271 4.95265 10
      vertex 8.30933 5.35815 2.9
      vertex 6.53271 4.95265 2.9
    endloop
  endfacet
  facet normal -0.866025 -0.5 0
    outer loop
      vertex 11 7 0
      vertex 9 10.4641 2.9
      vertex 9 10.4641 0
    endloop
  endfacet
  facet normal -0.866025 -0.5 0
    outer loop
      vertex 9 10.4641 2.9
      vertex 11 7 0
      vertex 11 7 2.9
    endloop
  endfacet
  facet normal 0.866026 0.5 0
    outer loop
      vertex 5 3.5359 2.9
      vertex 3 7 0
      vertex 3 7 2.9
    endloop
  endfacet
  facet normal 0.866026 0.5 0
    outer loop
      vertex 3 7 0
      vertex 5 3.5359 2.9
      vertex 5 3.5359 0
    endloop
  endfacet
  facet normal 0 -1 0
    outer loop
      vertex 5 10.4641 0
      vertex 9 10.4641 2.9
      vertex 5 10.4641 2.9
    endloop
  endfacet
  facet normal 0 -1 -0
    outer loop
      vertex 9 10.4641 2.9
      vertex 5 10.4641 0
      vertex 9 10.4641 0
    endloop
  endfacet
  facet normal 0 1 -0
    outer loop
      vertex 9 3.5359 0
      vertex 5 3.5359 2.9
      vertex 9 3.5359 2.9
    endloop
  endfacet
  facet normal 0 1 0
    outer loop
      vertex 5 3.5359 2.9
      vertex 9 3.5359 0
      vertex 5 3.5359 0
    endloop
  endfacet
  facet normal 0 0 -1
    outer loop
      vertex 8.30933 5.35815 2.9
      vertex 11 7 2.9
      vertex 9 3.5359 2.9
    endloop
  endfacet
  facet normal -0 0 -1
    outer loop
      vertex 11 7 2.9
      vertex 8.30933 5.35815 2.9
      vertex 9.1 7 2.9
    endloop
  endfacet
  facet normal 0 0 -1
    outer loop
      vertex 9 3.5359 2.9
      vertex 6.53271 4.95265 2.9
      vertex 8.30933 5.35815 2.9
    endloop
  endfacet
  facet normal 0 0 -1
    outer loop
      vertex 3 7 2.9
      vertex 5.10796 7.91116 2.9
      vertex 5.10796 6.08884 2.9
    endloop
  endfacet
  facet normal 0 0 -1
    outer loop
      vertex 5 3.5359 2.9
      vertex 6.53271 4.95265 2.9
      vertex 9 3.5359 2.9
    endloop
  endfacet
  facet normal 0 0 -1
    outer loop
      vertex 5 3.5359 2.9
      vertex 5.10796 6.08884 2.9
      vertex 6.53271 4.95265 2.9
    endloop
  endfacet
  facet normal 0 0 -1
    outer loop
      vertex 3 7 2.9
      vertex 5.10796 6.08884 2.9
      vertex 5 3.5359 2.9
    endloop
  endfacet
  facet normal -0 0 -1
    outer loop
      vertex 5.10796 7.91116 2.9
      vertex 3 7 2.9
      vertex 5 10.4641 2.9
    endloop
  endfacet
  facet normal 0 0 -1
    outer loop
      vertex 8.30933 8.64185 2.9
      vertex 11 7 2.9
      vertex 9.1 7 2.9
    endloop
  endfacet
  facet normal 0 0 -1
    outer loop
      vertex 11 7 2.9
      vertex 8.30933 8.64185 2.9
      vertex 9 10.4641 2.9
    endloop
  endfacet
  facet normal 0 0 -1
    outer loop
      vertex 6.53271 9.04735 2.9
      vertex 9 10.4641 2.9
      vertex 8.30933 8.64185 2.9
    endloop
  endfacet
  facet normal 0 0 -1
    outer loop
      vertex 6.53271 9.04735 2.9
      vertex 5 10.4641 2.9
      vertex 9 10.4641 2.9
    endloop
  endfacet
  facet normal 0 0 -1
    outer loop
      vertex 5 10.4641 2.9
      vertex 6.53271 9.04735 2.9
      vertex 5.10796 7.91116 2.9
    endloop
  endfacet
  facet normal 0.866025 -0.5 0
    outer loop
      vertex 3 7 2.9
      vertex 5 10.4641 0
      vertex 5 10.4641 2.9
    endloop
  endfacet
  facet normal 0.866025 -0.5 0
    outer loop
      vertex 5 10.4641 0
      vertex 3 7 2.9
      vertex 3 7 0
    endloop
  endfacet
  facet normal -0.866025 0.5 0
    outer loop
      vertex 9 3.5359 0
      vertex 11 7 2.9
      vertex 11 7 0
    endloop
  endfacet
  facet normal -0.866025 0.5 0
    outer loop
      vertex 11 7 2.9
      vertex 9 3.5359 0
      vertex 9 3.5359 2.9
    endloop
  endfacet
  facet normal -0.900969 -0.433884 0
    outer loop
      vertex 9.1 43 2.9
      vertex 8.30933 44.6418 10
      vertex 8.30933 44.6418 2.9
    endloop
  endfacet
  facet normal -0.900969 -0.433884 0
    outer loop
      vertex 8.30933 44.6418 10
      vertex 9.1 43 2.9
      vertex 9.1 43 10
    endloop
  endfacet
  facet normal 1 -0 0
    outer loop
      vertex 5.10796 42.0888 10
      vertex 5.10796 43.9112 2.9
      vertex 5.10796 43.9112 10
    endloop
  endfacet
  facet normal 1 0 0
    outer loop
      vertex 5.10796 43.9112 2.9
      vertex 5.10796 42.0888 10
      vertex 5.10796 42.0888 2.9
    endloop
  endfacet
  facet normal 0.62349 -0.781832 0
    outer loop
      vertex 5.10796 43.9112 2.9
      vertex 6.53271 45.0473 10
      vertex 5.10796 43.9112 10
    endloop
  endfacet
  facet normal 0.62349 -0.781832 0
    outer loop
      vertex 6.53271 45.0473 10
      vertex 5.10796 43.9112 2.9
      vertex 6.53271 45.0473 2.9
    endloop
  endfacet
  facet normal -0.222521 -0.974928 0
    outer loop
      vertex 6.53271 45.0473 2.9
      vertex 8.30933 44.6418 10
      vertex 6.53271 45.0473 10
    endloop
  endfacet
  facet normal -0.222521 -0.974928 -0
    outer loop
      vertex 8.30933 44.6418 10
      vertex 6.53271 45.0473 2.9
      vertex 8.30933 44.6418 2.9
    endloop
  endfacet
  facet normal -0.900969 0.433884 0
    outer loop
      vertex 8.30933 41.3582 2.9
      vertex 9.1 43 10
      vertex 9.1 43 2.9
    endloop
  endfacet
  facet normal -0.900969 0.433884 0
    outer loop
      vertex 9.1 43 10
      vertex 8.30933 41.3582 2.9
      vertex 8.30933 41.3582 10
    endloop
  endfacet
  facet normal 0.62349 0.781832 -0
    outer loop
      vertex 6.53271 40.9527 2.9
      vertex 5.10796 42.0888 10
      vertex 6.53271 40.9527 10
    endloop
  endfacet
  facet normal 0.62349 0.781832 0
    outer loop
      vertex 5.10796 42.0888 10
      vertex 6.53271 40.9527 2.9
      vertex 5.10796 42.0888 2.9
    endloop
  endfacet
  facet normal -0.222521 0.974928 0
    outer loop
      vertex 8.30933 41.3582 2.9
      vertex 6.53271 40.9527 10
      vertex 8.30933 41.3582 10
    endloop
  endfacet
  facet normal -0.222521 0.974928 0
    outer loop
      vertex 6.53271 40.9527 10
      vertex 8.30933 41.3582 2.9
      vertex 6.53271 40.9527 2.9
    endloop
  endfacet
  facet normal -0.866025 -0.5 0
    outer loop
      vertex 11 43 0
      vertex 9 46.4641 2.9
      vertex 9 46.4641 0
    endloop
  endfacet
  facet normal -0.866025 -0.5 0
    outer loop
      vertex 9 46.4641 2.9
      vertex 11 43 0
      vertex 11 43 2.9
    endloop
  endfacet
  facet normal 0.866026 0.5 0
    outer loop
      vertex 5 39.5359 2.9
      vertex 3 43 0
      vertex 3 43 2.9
    endloop
  endfacet
  facet normal 0.866026 0.5 0
    outer loop
      vertex 3 43 0
      vertex 5 39.5359 2.9
      vertex 5 39.5359 0
    endloop
  endfacet
  facet normal 0 -1 0
    outer loop
      vertex 5 46.4641 0
      vertex 9 46.4641 2.9
      vertex 5 46.4641 2.9
    endloop
  endfacet
  facet normal 0 -1 -0
    outer loop
      vertex 9 46.4641 2.9
      vertex 5 46.4641 0
      vertex 9 46.4641 0
    endloop
  endfacet
  facet normal 0 1 -0
    outer loop
      vertex 9 39.5359 0
      vertex 5 39.5359 2.9
      vertex 9 39.5359 2.9
    endloop
  endfacet
  facet normal 0 1 0
    outer loop
      vertex 5 39.5359 2.9
      vertex 9 39.5359 0
      vertex 5 39.5359 0
    endloop
  endfacet
  facet normal 0 0 -1
    outer loop
      vertex 8.30933 41.3582 2.9
      vertex 11 43 2.9
      vertex 9 39.5359 2.9
    endloop
  endfacet
  facet normal -0 0 -1
    outer loop
      vertex 11 43 2.9
      vertex 8.30933 41.3582 2.9
      vertex 9.1 43 2.9
    endloop
  endfacet
  facet normal 0 0 -1
    outer loop
      vertex 9 39.5359 2.9
      vertex 6.53271 40.9527 2.9
      vertex 8.30933 41.3582 2.9
    endloop
  endfacet
  facet normal 0 0 -1
    outer loop
      vertex 3 43 2.9
      vertex 5.10796 43.9112 2.9
      vertex 5.10796 42.0888 2.9
    endloop
  endfacet
  facet normal 0 0 -1
    outer loop
      vertex 5 39.5359 2.9
      vertex 6.53271 40.9527 2.9
      vertex 9 39.5359 2.9
    endloop
  endfacet
  facet normal 0 0 -1
    outer loop
      vertex 5 39.5359 2.9
      vertex 5.10796 42.0888 2.9
      vertex 6.53271 40.9527 2.9
    endloop
  endfacet
  facet normal 0 0 -1
    outer loop
      vertex 3 43 2.9
      vertex 5.10796 42.0888 2.9
      vertex 5 39.5359 2.9
    endloop
  endfacet
  facet normal -0 0 -1
    outer loop
      vertex 5.10796 43.9112 2.9
      vertex 3 43 2.9
      vertex 5 46.4641 2.9
    endloop
  endfacet
  facet normal 0 0 -1
    outer loop
      vertex 8.30933 44.6418 2.9
      vertex 11 43 2.9
      vertex 9.1 43 2.9
    endloop
  endfacet
  facet normal 0 0 -1
    outer loop
      vertex 11 43 2.9
      vertex 8.30933 44.6418 2.9
      vertex 9 46.4641 2.9
    endloop
  endfacet
  facet normal 0 0 -1
    outer loop
      vertex 6.53271 45.0473 2.9
      vertex 9 46.4641 2.9
      vertex 8.30933 44.6418 2.9
    endloop
  endfacet
  facet normal 0 0 -1
    outer loop
      vertex 6.53271 45.0473 2.9
      vertex 5 46.4641 2.9
      vertex 9 46.4641 2.9
    endloop
  endfacet
  facet normal 0 0 -1
    outer loop
      vertex 5 46.4641 2.9
      vertex 6.53271 45.0473 2.9
      vertex 5.10796 43.9112 2.9
    endloop
  endfacet
  facet normal 0.866025 -0.5 0
    outer loop
      vertex 3 43 2.9
      vertex 5 46.4641 0
      vertex 5 46.4641 2.9
    endloop
  endfacet
  facet normal 0.866025 -0.5 0
    outer loop
      vertex 5 46.4641 0
      vertex 3 43 2.9
      vertex 3 43 0
    endloop
  endfacet
  facet normal -0.866026 0.5 0
    outer loop
      vertex 9 39.5359 0
      vertex 11 43 2.9
      vertex 11 43 0
    endloop
  endfacet
  facet normal -0.866026 0.5 0
    outer loop
      vertex 11 43 2.9
      vertex 9 39.5359 0
      vertex 9 39.5359 2.9
    endloop
  endfacet
  facet normal -0.900969 -0.433884 0
    outer loop
      vertex 45.1 7 2.9
      vertex 44.3093 8.64185 10
      vertex 44.3093 8.64185 2.9
    endloop
  endfacet
  facet normal -0.900969 -0.433884 0
    outer loop
      vertex 44.3093 8.64185 10
      vertex 45.1 7 2.9
      vertex 45.1 7 10
    endloop
  endfacet
  facet normal 1 -0 0
    outer loop
      vertex 41.108 6.08884 10
      vertex 41.108 7.91116 2.9
      vertex 41.108 7.91116 10
    endloop
  endfacet
  facet normal 1 0 0
    outer loop
      vertex 41.108 7.91116 2.9
      vertex 41.108 6.08884 10
      vertex 41.108 6.08884 2.9
    endloop
  endfacet
  facet normal 0.623489 -0.781832 0
    outer loop
      vertex 41.108 7.91116 2.9
      vertex 42.5327 9.04735 10
      vertex 41.108 7.91116 10
    endloop
  endfacet
  facet normal 0.623489 -0.781832 0
    outer loop
      vertex 42.5327 9.04735 10
      vertex 41.108 7.91116 2.9
      vertex 42.5327 9.04735 2.9
    endloop
  endfacet
  facet normal -0.222521 -0.974928 0
    outer loop
      vertex 42.5327 9.04735 2.9
      vertex 44.3093 8.64185 10
      vertex 42.5327 9.04735 10
    endloop
  endfacet
  facet normal -0.222521 -0.974928 -0
    outer loop
      vertex 44.3093 8.64185 10
      vertex 42.5327 9.04735 2.9
      vertex 44.3093 8.64185 2.9
    endloop
  endfacet
  facet normal -0.900969 0.433884 0
    outer loop
      vertex 44.3093 5.35815 2.9
      vertex 45.1 7 10
      vertex 45.1 7 2.9
    endloop
  endfacet
  facet normal -0.900969 0.433884 0
    outer loop
      vertex 45.1 7 10
      vertex 44.3093 5.35815 2.9
      vertex 44.3093 5.35815 10
    endloop
  endfacet
  facet normal 0.623489 0.781832 -0
    outer loop
      vertex 42.5327 4.95265 2.9
      vertex 41.108 6.08884 10
      vertex 42.5327 4.95265 10
    endloop
  endfacet
  facet normal 0.623489 0.781832 0
    outer loop
      vertex 41.108 6.08884 10
      vertex 42.5327 4.95265 2.9
      vertex 41.108 6.08884 2.9
    endloop
  endfacet
  facet normal -0.222521 0.974928 0
    outer loop
      vertex 44.3093 5.35815 2.9
      vertex 42.5327 4.95265 10
      vertex 44.3093 5.35815 10
    endloop
  endfacet
  facet normal -0.222521 0.974928 0
    outer loop
      vertex 42.5327 4.95265 10
      vertex 44.3093 5.35815 2.9
      vertex 42.5327 4.95265 2.9
    endloop
  endfacet
  facet normal -0.866025 -0.5 0
    outer loop
      vertex 47 7 0
      vertex 45 10.4641 2.9
      vertex 45 10.4641 0
    endloop
  endfacet
  facet normal -0.866025 -0.5 0
    outer loop
      vertex 45 10.4641 2.9
      vertex 47 7 0
      vertex 47 7 2.9
    endloop
  endfacet
  facet normal 0 1 -0
    outer loop
      vertex 45 3.5359 0
      vertex 41 3.5359 2.9
      vertex 45 3.5359 2.9
    endloop
  endfacet
  facet normal 0 1 0
    outer loop
      vertex 41 3.5359 2.9
      vertex 45 3.5359 0
      vertex 41 3.5359 0
    endloop
  endfacet
  facet normal 0.866025 -0.5 0
    outer loop
      vertex 39 7 2.9
      vertex 41 10.4641 0
      vertex 41 10.4641 2.9
    endloop
  endfacet
  facet normal 0.866025 -0.5 0
    outer loop
      vertex 41 10.4641 0
      vertex 39 7 2.9
      vertex 39 7 0
    endloop
  endfacet
  facet normal 0 -1 0
    outer loop
      vertex 41 10.4641 0
      vertex 45 10.4641 2.9
      vertex 41 10.4641 2.9
    endloop
  endfacet
  facet normal 0 -1 -0
    outer loop
      vertex 45 10.4641 2.9
      vertex 41 10.4641 0
      vertex 45 10.4641 0
    endloop
  endfacet
  facet normal 0.866025 0.5 0
    outer loop
      vertex 41 3.5359 2.9
      vertex 39 7 0
      vertex 39 7 2.9
    endloop
  endfacet
  facet normal 0.866025 0.5 0
    outer loop
      vertex 39 7 0
      vertex 41 3.5359 2.9
      vertex 41 3.5359 0
    endloop
  endfacet
  facet normal 0 0 -1
    outer loop
      vertex 44.3093 5.35815 2.9
      vertex 47 7 2.9
      vertex 45 3.5359 2.9
    endloop
  endfacet
  facet normal -0 0 -1
    outer loop
      vertex 47 7 2.9
      vertex 44.3093 5.35815 2.9
      vertex 45.1 7 2.9
    endloop
  endfacet
  facet normal 0 0 -1
    outer loop
      vertex 45 3.5359 2.9
      vertex 42.5327 4.95265 2.9
      vertex 44.3093 5.35815 2.9
    endloop
  endfacet
  facet normal 0 0 -1
    outer loop
      vertex 39 7 2.9
      vertex 41.108 6.08884 2.9
      vertex 41 3.5359 2.9
    endloop
  endfacet
  facet normal -0 0 -1
    outer loop
      vertex 42.5327 4.95265 2.9
      vertex 41 3.5359 2.9
      vertex 41.108 6.08884 2.9
    endloop
  endfacet
  facet normal 0 0 -1
    outer loop
      vertex 41 3.5359 2.9
      vertex 42.5327 4.95265 2.9
      vertex 45 3.5359 2.9
    endloop
  endfacet
  facet normal 0 0 -1
    outer loop
      vertex 44.3093 8.64185 2.9
      vertex 47 7 2.9
      vertex 45.1 7 2.9
    endloop
  endfacet
  facet normal 0 0 -1
    outer loop
      vertex 47 7 2.9
      vertex 44.3093 8.64185 2.9
      vertex 45 10.4641 2.9
    endloop
  endfacet
  facet normal 0 0 -1
    outer loop
      vertex 42.5327 9.04735 2.9
      vertex 45 10.4641 2.9
      vertex 44.3093 8.64185 2.9
    endloop
  endfacet
  facet normal 0 0 -1
    outer loop
      vertex 42.5327 9.04735 2.9
      vertex 41 10.4641 2.9
      vertex 45 10.4641 2.9
    endloop
  endfacet
  facet normal 0 0 -1
    outer loop
      vertex 41.108 7.91116 2.9
      vertex 41 10.4641 2.9
      vertex 42.5327 9.04735 2.9
    endloop
  endfacet
  facet normal 0 0 -1
    outer loop
      vertex 41.108 6.08884 2.9
      vertex 39 7 2.9
      vertex 41.108 7.91116 2.9
    endloop
  endfacet
  facet normal -0 0 -1
    outer loop
      vertex 41.108 7.91116 2.9
      vertex 39 7 2.9
      vertex 41 10.4641 2.9
    endloop
  endfacet
  facet normal -0.866025 0.5 0
    outer loop
      vertex 45 3.5359 0
      vertex 47 7 2.9
      vertex 47 7 0
    endloop
  endfacet
  facet normal -0.866025 0.5 0
    outer loop
      vertex 47 7 2.9
      vertex 45 3.5359 0
      vertex 45 3.5359 2.9
    endloop
  endfacet
  facet normal -0.900969 -0.433884 0
    outer loop
      vertex 45.1 43 2.9
      vertex 44.3093 44.6418 10
      vertex 44.3093 44.6418 2.9
    endloop
  endfacet
  facet normal -0.900969 -0.433884 0
    outer loop
      vertex 44.3093 44.6418 10
      vertex 45.1 43 2.9
      vertex 45.1 43 10
    endloop
  endfacet
  facet normal 1 -0 0
    outer loop
      vertex 41.108 42.0888 10
      vertex 41.108 43.9112 2.9
      vertex 41.108 43.9112 10
    endloop
  endfacet
  facet normal 1 0 0
    outer loop
      vertex 41.108 43.9112 2.9
      vertex 41.108 42.0888 10
      vertex 41.108 42.0888 2.9
    endloop
  endfacet
  facet normal 0.623489 -0.781832 0
    outer loop
      vertex 41.108 43.9112 2.9
      vertex 42.5327 45.0473 10
      vertex 41.108 43.9112 10
    endloop
  endfacet
  facet normal 0.623489 -0.781832 0
    outer loop
      vertex 42.5327 45.0473 10
      vertex 41.108 43.9112 2.9
      vertex 42.5327 45.0473 2.9
    endloop
  endfacet
  facet normal -0.222521 -0.974928 0
    outer loop
      vertex 42.5327 45.0473 2.9
      vertex 44.3093 44.6418 10
      vertex 42.5327 45.0473 10
    endloop
  endfacet
  facet normal -0.222521 -0.974928 -0
    outer loop
      vertex 44.3093 44.6418 10
      vertex 42.5327 45.0473 2.9
      vertex 44.3093 44.6418 2.9
    endloop
  endfacet
  facet normal -0.900969 0.433884 0
    outer loop
      vertex 44.3093 41.3582 2.9
      vertex 45.1 43 10
      vertex 45.1 43 2.9
    endloop
  endfacet
  facet normal -0.900969 0.433884 0
    outer loop
      vertex 45.1 43 10
      vertex 44.3093 41.3582 2.9
      vertex 44.3093 41.3582 10
    endloop
  endfacet
  facet normal 0.623489 0.781832 -0
    outer loop
      vertex 42.5327 40.9527 2.9
      vertex 41.108 42.0888 10
      vertex 42.5327 40.9527 10
    endloop
  endfacet
  facet normal 0.623489 0.781832 0
    outer loop
      vertex 41.108 42.0888 10
      vertex 42.5327 40.9527 2.9
      vertex 41.108 42.0888 2.9
    endloop
  endfacet
  facet normal -0.222521 0.974928 0
    outer loop
      vertex 44.3093 41.3582 2.9
      vertex 42.5327 40.9527 10
      vertex 44.3093 41.3582 10
    endloop
  endfacet
  facet normal -0.222521 0.974928 0
    outer loop
      vertex 42.5327 40.9527 10
      vertex 44.3093 41.3582 2.9
      vertex 42.5327 40.9527 2.9
    endloop
  endfacet
  facet normal -0.866025 -0.5 0
    outer loop
      vertex 47 43 0
      vertex 45 46.4641 2.9
      vertex 45 46.4641 0
    endloop
  endfacet
  facet normal -0.866025 -0.5 0
    outer loop
      vertex 45 46.4641 2.9
      vertex 47 43 0
      vertex 47 43 2.9
    endloop
  endfacet
  facet normal 0 1 -0
    outer loop
      vertex 45 39.5359 0
      vertex 41 39.5359 2.9
      vertex 45 39.5359 2.9
    endloop
  endfacet
  facet normal 0 1 0
    outer loop
      vertex 41 39.5359 2.9
      vertex 45 39.5359 0
      vertex 41 39.5359 0
    endloop
  endfacet
  facet normal 0.866025 -0.5 0
    outer loop
      vertex 39 43 2.9
      vertex 41 46.4641 0
      vertex 41 46.4641 2.9
    endloop
  endfacet
  facet normal 0.866025 -0.5 0
    outer loop
      vertex 41 46.4641 0
      vertex 39 43 2.9
      vertex 39 43 0
    endloop
  endfacet
  facet normal 0 -1 0
    outer loop
      vertex 41 46.4641 0
      vertex 45 46.4641 2.9
      vertex 41 46.4641 2.9
    endloop
  endfacet
  facet normal 0 -1 -0
    outer loop
      vertex 45 46.4641 2.9
      vertex 41 46.4641 0
      vertex 45 46.4641 0
    endloop
  endfacet
  facet normal 0.866026 0.5 0
    outer loop
      vertex 41 39.5359 2.9
      vertex 39 43 0
      vertex 39 43 2.9
    endloop
  endfacet
  facet normal 0.866026 0.5 0
    outer loop
      vertex 39 43 0
      vertex 41 39.5359 2.9
      vertex 41 39.5359 0
    endloop
  endfacet
  facet normal 0 0 -1
    outer loop
      vertex 44.3093 41.3582 2.9
      vertex 47 43 2.9
      vertex 45 39.5359 2.9
    endloop
  endfacet
  facet normal -0 0 -1
    outer loop
      vertex 47 43 2.9
      vertex 44.3093 41.3582 2.9
      vertex 45.1 43 2.9
    endloop
  endfacet
  facet normal 0 0 -1
    outer loop
      vertex 45 39.5359 2.9
      vertex 42.5327 40.9527 2.9
      vertex 44.3093 41.3582 2.9
    endloop
  endfacet
  facet normal 0 0 -1
    outer loop
      vertex 39 43 2.9
      vertex 41.108 42.0888 2.9
      vertex 41 39.5359 2.9
    endloop
  endfacet
  facet normal -0 0 -1
    outer loop
      vertex 42.5327 40.9527 2.9
      vertex 41 39.5359 2.9
      vertex 41.108 42.0888 2.9
    endloop
  endfacet
  facet normal 0 0 -1
    outer loop
      vertex 41 39.5359 2.9
      vertex 42.5327 40.9527 2.9
      vertex 45 39.5359 2.9
    endloop
  endfacet
  facet normal 0 0 -1
    outer loop
      vertex 44.3093 44.6418 2.9
      vertex 47 43 2.9
      vertex 45.1 43 2.9
    endloop
  endfacet
  facet normal 0 0 -1
    outer loop
      vertex 47 43 2.9
      vertex 44.3093 44.6418 2.9
      vertex 45 46.4641 2.9
    endloop
  endfacet
  facet normal 0 0 -1
    outer loop
      vertex 42.5327 45.0473 2.9
      vertex 45 46.4641 2.9
      vertex 44.3093 44.6418 2.9
    endloop
  endfacet
  facet normal 0 0 -1
    outer loop
      vertex 42.5327 45.0473 2.9
      vertex 41 46.4641 2.9
      vertex 45 46.4641 2.9
    endloop
  endfacet
  facet normal 0 0 -1
    outer loop
      vertex 41.108 43.9112 2.9
      vertex 41 46.4641 2.9
      vertex 42.5327 45.0473 2.9
    endloop
  endfacet
  facet normal 0 0 -1
    outer loop
      vertex 41.108 42.0888 2.9
      vertex 39 43 2.9
      vertex 41.108 43.9112 2.9
    endloop
  endfacet
  facet normal -0 0 -1
    outer loop
      vertex 41.108 43.9112 2.9
      vertex 39 43 2.9
      vertex 41 46.4641 2.9
    endloop
  endfacet
  facet normal -0.866026 0.5 0
    outer loop
      vertex 45 39.5359 0
      vertex 47 43 2.9
      vertex 47 43 0
    endloop
  endfacet
  facet normal -0.866026 0.5 0
    outer loop
      vertex 47 43 2.9
      vertex 45 39.5359 0
      vertex 45 39.5359 2.9
    endloop
  endfacet
  facet normal -1 0 0
    outer loop
      vertex 0 50 0
      vertex 0 35.5 3.6
      vertex 0 50 10
    endloop
  endfacet
  facet normal -1 0 0
    outer loop
      vertex 0 50 0
      vertex 0 14.5 3.6
      vertex 0 35.5 3.6
    endloop
  endfacet
  facet normal -1 0 0
    outer loop
      vertex 0 0 0
      vertex 0 14.5 3.6
      vertex 0 50 0
    endloop
  endfacet
  facet normal -1 0 0
    outer loop
      vertex 0 0 10
      vertex 0 14.5 3.6
      vertex 0 0 0
    endloop
  endfacet
  facet normal -1 0 0
    outer loop
      vertex 0 14.5 3.6
      vertex 0 0 10
      vertex 0 14.5 10
    endloop
  endfacet
  facet normal -1 -0 0
    outer loop
      vertex 0 50 10
      vertex 0 35.5 3.6
      vertex 0 35.5 10
    endloop
  endfacet
  facet normal 0 0 1
    outer loop
      vertex 50 14.5 10
      vertex 45.1 7 10
      vertex 50 0 10
    endloop
  endfacet
  facet normal 0 0 1
    outer loop
      vertex 50 14.5 10
      vertex 44.3093 8.64185 10
      vertex 45.1 7 10
    endloop
  endfacet
  facet normal 0 0 1
    outer loop
      vertex 50 14.5 10
      vertex 42.5327 9.04735 10
      vertex 44.3093 8.64185 10
    endloop
  endfacet
  facet normal 0 0 1
    outer loop
      vertex 41.108 7.91116 10
      vertex 9.1 7 10
      vertex 41.108 6.08884 10
    endloop
  endfacet
  facet normal -0 0 1
    outer loop
      vertex 8.30933 8.64185 10
      vertex 41.108 7.91116 10
      vertex 42.5327 9.04735 10
    endloop
  endfacet
  facet normal 0 0 1
    outer loop
      vertex 8.30933 8.64185 10
      vertex 42.5327 9.04735 10
      vertex 50 14.5 10
    endloop
  endfacet
  facet normal 0 0 1
    outer loop
      vertex 41.108 7.91116 10
      vertex 8.30933 8.64185 10
      vertex 9.1 7 10
    endloop
  endfacet
  facet normal -0 0 1
    outer loop
      vertex 0 14.5 10
      vertex 8.30933 8.64185 10
      vertex 50 14.5 10
    endloop
  endfacet
  facet normal 0 0 1
    outer loop
      vertex 0 0 10
      vertex 5.10796 7.91116 10
      vertex 0 14.5 10
    endloop
  endfacet
  facet normal 0 0 1
    outer loop
      vertex 6.53271 9.04735 10
      vertex 0 14.5 10
      vertex 5.10796 7.91116 10
    endloop
  endfacet
  facet normal 0 0 1
    outer loop
      vertex 8.30933 8.64185 10
      vertex 0 14.5 10
      vertex 6.53271 9.04735 10
    endloop
  endfacet
  facet normal -0 0 1
    outer loop
      vertex 44.3093 5.35815 10
      vertex 50 0 10
      vertex 45.1 7 10
    endloop
  endfacet
  facet normal -0 0 1
    outer loop
      vertex 42.5327 4.95265 10
      vertex 50 0 10
      vertex 44.3093 5.35815 10
    endloop
  endfacet
  facet normal 0 0 1
    outer loop
      vertex 8.30933 5.35815 10
      vertex 41.108 6.08884 10
      vertex 9.1 7 10
    endloop
  endfacet
  facet normal 0 0 1
    outer loop
      vertex 41.108 6.08884 10
      vertex 8.30933 5.35815 10
      vertex 42.5327 4.95265 10
    endloop
  endfacet
  facet normal 0 0 1
    outer loop
      vertex 42.5327 4.95265 10
      vertex 8.30933 5.35815 10
      vertex 50 0 10
    endloop
  endfacet
  facet normal 0 0 1
    outer loop
      vertex 0 0 10
      vertex 8.30933 5.35815 10
      vertex 6.53271 4.95265 10
    endloop
  endfacet
  facet normal 0 0 1
    outer loop
      vertex 8.30933 5.35815 10
      vertex 0 0 10
      vertex 50 0 10
    endloop
  endfacet
  facet normal 0 0 1
    outer loop
      vertex 5.10796 6.08884 10
      vertex 0 0 10
      vertex 6.53271 4.95265 10
    endloop
  endfacet
  facet normal 0 0 1
    outer loop
      vertex 5.10796 7.91116 10
      vertex 0 0 10
      vertex 5.10796 6.08884 10
    endloop
  endfacet
  facet normal 0 0 1
    outer loop
      vertex 50 50 10
      vertex 45.1 43 10
      vertex 50 35.5 10
    endloop
  endfacet
  facet normal 0 0 1
    outer loop
      vertex 50 50 10
      vertex 44.3093 44.6418 10
      vertex 45.1 43 10
    endloop
  endfacet
  facet normal 0 0 1
    outer loop
      vertex 50 50 10
      vertex 42.5327 45.0473 10
      vertex 44.3093 44.6418 10
    endloop
  endfacet
  facet normal 0 0 1
    outer loop
      vertex 41.108 43.9112 10
      vertex 9.1 43 10
      vertex 41.108 42.0888 10
    endloop
  endfacet
  facet normal -0 0 1
    outer loop
      vertex 8.30933 44.6418 10
      vertex 41.108 43.9112 10
      vertex 42.5327 45.0473 10
    endloop
  endfacet
  facet normal 0 0 1
    outer loop
      vertex 8.30933 44.6418 10
      vertex 42.5327 45.0473 10
      vertex 50 50 10
    endloop
  endfacet
  facet normal 0 0 1
    outer loop
      vertex 41.108 43.9112 10
      vertex 8.30933 44.6418 10
      vertex 9.1 43 10
    endloop
  endfacet
  facet normal -0 0 1
    outer loop
      vertex 0 50 10
      vertex 8.30933 44.6418 10
      vertex 50 50 10
    endloop
  endfacet
  facet normal 0 0 1
    outer loop
      vertex 5.10796 43.9112 10
      vertex 0 50 10
      vertex 5.10796 42.0888 10
    endloop
  endfacet
  facet normal 0 0 1
    outer loop
      vertex 6.53271 45.0473 10
      vertex 0 50 10
      vertex 5.10796 43.9112 10
    endloop
  endfacet
  facet normal 0 0 1
    outer loop
      vertex 8.30933 44.6418 10
      vertex 0 50 10
      vertex 6.53271 45.0473 10
    endloop
  endfacet
  facet normal -0 0 1
    outer loop
      vertex 44.3093 41.3582 10
      vertex 50 35.5 10
      vertex 45.1 43 10
    endloop
  endfacet
  facet normal -0 0 1
    outer loop
      vertex 42.5327 40.9527 10
      vertex 50 35.5 10
      vertex 44.3093 41.3582 10
    endloop
  endfacet
  facet normal 0 0 1
    outer loop
      vertex 8.30933 41.3582 10
      vertex 41.108 42.0888 10
      vertex 9.1 43 10
    endloop
  endfacet
  facet normal 0 0 1
    outer loop
      vertex 41.108 42.0888 10
      vertex 8.30933 41.3582 10
      vertex 42.5327 40.9527 10
    endloop
  endfacet
  facet normal 0 0 1
    outer loop
      vertex 42.5327 40.9527 10
      vertex 8.30933 41.3582 10
      vertex 50 35.5 10
    endloop
  endfacet
  facet normal 0 0 1
    outer loop
      vertex 0 35.5 10
      vertex 8.30933 41.3582 10
      vertex 6.53271 40.9527 10
    endloop
  endfacet
  facet normal 0 0 1
    outer loop
      vertex 8.30933 41.3582 10
      vertex 0 35.5 10
      vertex 50 35.5 10
    endloop
  endfacet
  facet normal 0 0 1
    outer loop
      vertex 5.10796 42.0888 10
      vertex 0 35.5 10
      vertex 6.53271 40.9527 10
    endloop
  endfacet
  facet normal 0 0 1
    outer loop
      vertex 0 35.5 10
      vertex 5.10796 42.0888 10
      vertex 0 50 10
    endloop
  endfacet
  facet normal 1 0 0
    outer loop
      vertex 50 14.5 10
      vertex 50 0 10
      vertex 50 14.5 3.6
    endloop
  endfacet
  facet normal 1 0 0
    outer loop
      vertex 50 35.5 3.6
      vertex 50 50 10
      vertex 50 35.5 10
    endloop
  endfacet
  facet normal 1 0 0
    outer loop
      vertex 50 50 10
      vertex 50 35.5 3.6
      vertex 50 50 0
    endloop
  endfacet
  facet normal 1 -0 0
    outer loop
      vertex 50 14.5 3.6
      vertex 50 50 0
      vertex 50 35.5 3.6
    endloop
  endfacet
  facet normal 1 0 0
    outer loop
      vertex 50 14.5 3.6
      vertex 50 0 0
      vertex 50 50 0
    endloop
  endfacet
  facet normal 1 0 0
    outer loop
      vertex 50 0 0
      vertex 50 14.5 3.6
      vertex 50 0 10
    endloop
  endfacet
  facet normal 0 1 -0
    outer loop
      vertex 50 50 0
      vertex 0 50 10
      vertex 50 50 10
    endloop
  endfacet
  facet normal 0 1 0
    outer loop
      vertex 0 50 10
      vertex 50 50 0
      vertex 0 50 0
    endloop
  endfacet
  facet normal 0 0 -1
    outer loop
      vertex 9 39.5359 0
      vertex 41 39.5359 0
      vertex 9 10.4641 0
    endloop
  endfacet
  facet normal 0 0 -1
    outer loop
      vertex 41 39.5359 0
      vertex 9 39.5359 0
      vertex 11 43 0
    endloop
  endfacet
  facet normal 0 0 -1
    outer loop
      vertex 5 10.4641 0
      vertex 9 39.5359 0
      vertex 9 10.4641 0
    endloop
  endfacet
  facet normal 0 0 -1
    outer loop
      vertex 5 10.4641 0
      vertex 5 39.5359 0
      vertex 9 39.5359 0
    endloop
  endfacet
  facet normal 0 0 -1
    outer loop
      vertex 3 7 0
      vertex 5 39.5359 0
      vertex 5 10.4641 0
    endloop
  endfacet
  facet normal -0 0 -1
    outer loop
      vertex 5 39.5359 0
      vertex 3 7 0
      vertex 3 43 0
    endloop
  endfacet
  facet normal 0 0 -1
    outer loop
      vertex 45 10.4641 0
      vertex 47 43 0
      vertex 47 7 0
    endloop
  endfacet
  facet normal 0 0 -1
    outer loop
      vertex 45 10.4641 0
      vertex 45 39.5359 0
      vertex 47 43 0
    endloop
  endfacet
  facet normal 0 0 -1
    outer loop
      vertex 41 10.4641 0
      vertex 45 39.5359 0
      vertex 45 10.4641 0
    endloop
  endfacet
  facet normal 0 0 -1
    outer loop
      vertex 41 10.4641 0
      vertex 41 39.5359 0
      vertex 45 39.5359 0
    endloop
  endfacet
  facet normal 0 0 -1
    outer loop
      vertex 11 7 0
      vertex 41 10.4641 0
      vertex 39 7 0
    endloop
  endfacet
  facet normal 0 0 -1
    outer loop
      vertex 9 10.4641 0
      vertex 41 10.4641 0
      vertex 11 7 0
    endloop
  endfacet
  facet normal 0 0 -1
    outer loop
      vertex 50 0 0
      vertex 47 7 0
      vertex 50 50 0
    endloop
  endfacet
  facet normal 0 0 -1
    outer loop
      vertex 50 0 0
      vertex 45 3.5359 0
      vertex 47 7 0
    endloop
  endfacet
  facet normal 0 0 -1
    outer loop
      vertex 50 0 0
      vertex 41 3.5359 0
      vertex 45 3.5359 0
    endloop
  endfacet
  facet normal 0 0 -1
    outer loop
      vertex 41 10.4641 0
      vertex 9 10.4641 0
      vertex 41 39.5359 0
    endloop
  endfacet
  facet normal 0 0 -1
    outer loop
      vertex 41 3.5359 0
      vertex 11 7 0
      vertex 39 7 0
    endloop
  endfacet
  facet normal 0 0 -1
    outer loop
      vertex 9 3.5359 0
      vertex 41 3.5359 0
      vertex 50 0 0
    endloop
  endfacet
  facet normal 0 0 -1
    outer loop
      vertex 41 3.5359 0
      vertex 9 3.5359 0
      vertex 11 7 0
    endloop
  endfacet
  facet normal 0 0 -1
    outer loop
      vertex 0 0 0
      vertex 9 3.5359 0
      vertex 50 0 0
    endloop
  endfacet
  facet normal -0 0 -1
    outer loop
      vertex 3 7 0
      vertex 0 0 0
      vertex 3 43 0
    endloop
  endfacet
  facet normal -0 0 -1
    outer loop
      vertex 5 3.5359 0
      vertex 0 0 0
      vertex 3 7 0
    endloop
  endfacet
  facet normal -0 0 -1
    outer loop
      vertex 9 3.5359 0
      vertex 0 0 0
      vertex 5 3.5359 0
    endloop
  endfacet
  facet normal 0 0 -1
    outer loop
      vertex 47 43 0
      vertex 50 50 0
      vertex 47 7 0
    endloop
  endfacet
  facet normal 0 0 -1
    outer loop
      vertex 45 46.4641 0
      vertex 50 50 0
      vertex 47 43 0
    endloop
  endfacet
  facet normal 0 0 -1
    outer loop
      vertex 41 46.4641 0
      vertex 50 50 0
      vertex 45 46.4641 0
    endloop
  endfacet
  facet normal 0 0 -1
    outer loop
      vertex 41 39.5359 0
      vertex 11 43 0
      vertex 39 43 0
    endloop
  endfacet
  facet normal 0 0 -1
    outer loop
      vertex 39 43 0
      vertex 11 43 0
      vertex 41 46.4641 0
    endloop
  endfacet
  facet normal 0 0 -1
    outer loop
      vertex 9 46.4641 0
      vertex 41 46.4641 0
      vertex 11 43 0
    endloop
  endfacet
  facet normal 0 0 -1
    outer loop
      vertex 41 46.4641 0
      vertex 9 46.4641 0
      vertex 50 50 0
    endloop
  endfacet
  facet normal 0 0 -1
    outer loop
      vertex 0 50 0
      vertex 9 46.4641 0
      vertex 5 46.4641 0
    endloop
  endfacet
  facet normal 0 0 -1
    outer loop
      vertex 9 46.4641 0
      vertex 0 50 0
      vertex 50 50 0
    endloop
  endfacet
  facet normal 0 0 -1
    outer loop
      vertex 3 43 0
      vertex 0 50 0
      vertex 5 46.4641 0
    endloop
  endfacet
  facet normal 0 0 -1
    outer loop
      vertex 0 50 0
      vertex 3 43 0
      vertex 0 0 0
    endloop
  endfacet
  facet normal 0 -1 0
    outer loop
      vertex 0 0 0
      vertex 50 0 10
      vertex 0 0 10
    endloop
  endfacet
  facet normal 0 -1 -0
    outer loop
      vertex 50 0 10
      vertex 0 0 0
      vertex 50 0 0
    endloop
  endfacet
  facet normal -0 0 1
    outer loop
      vertex 0 35.5 3.6
      vertex 50 14.5 3.6
      vertex 50 35.5 3.6
    endloop
  endfacet
  facet normal 0 0 1
    outer loop
      vertex 50 14.5 3.6
      vertex 0 35.5 3.6
      vertex 0 14.5 3.6
    endloop
  endfacet
  facet normal 0 1 -0
    outer loop
      vertex 50 14.5 3.6
      vertex 0 14.5 10
      vertex 50 14.5 10
    endloop
  endfacet
  facet normal 0 1 0
    outer loop
      vertex 0 14.5 10
      vertex 50 14.5 3.6
      vertex 0 14.5 3.6
    endloop
  endfacet
  facet normal 0 -1 0
    outer loop
      vertex 0 35.5 3.6
      vertex 50 35.5 10
      vertex 0 35.5 10
    endloop
  endfacet
  facet normal 0 -1 -0
    outer loop
      vertex 50 35.5 10
      vertex 0 35.5 3.6
      vertex 50 35.5 3.6
    endloop
  endfacet
endsolid OpenSCAD_Model
